<svg xmlns="http://www.w3.org/2000/svg" width="420" height="420" viewBox="0 0 420 420" role="img" aria-labelledby="title desc">
  <title id="title">GCash QR Placeholder</title>
  <desc id="desc">A simple QR-style placeholder image for GCash payment confirmation.</desc>
  <rect width="420" height="420" fill="#ffffff"/>
  <rect x="20" y="20" width="110" height="110" fill="#111111"/>
  <rect x="40" y="40" width="70" height="70" fill="#ffffff"/>
  <rect x="290" y="20" width="110" height="110" fill="#111111"/>
  <rect x="310" y="40" width="70" height="70" fill="#ffffff"/>
  <rect x="20" y="290" width="110" height="110" fill="#111111"/>
  <rect x="40" y="310" width="70" height="70" fill="#ffffff"/>
  <rect x="150" y="30" width="20" height="20" fill="#111111"/>
  <rect x="190" y="30" width="20" height="20" fill="#111111"/>
  <rect x="230" y="30" width="20" height="20" fill="#111111"/>
  <rect x="270" y="30" width="20" height="20" fill="#111111"/>
  <rect x="150" y="70" width="20" height="20" fill="#111111"/>
  <rect x="230" y="70" width="20" height="20" fill="#111111"/>
  <rect x="270" y="70" width="20" height="20" fill="#111111"/>
  <rect x="150" y="110" width="20" height="20" fill="#111111"/>
  <rect x="190" y="110" width="20" height="20" fill="#111111"/>
  <rect x="230" y="110" width="20" height="20" fill="#111111"/>
  <rect x="270" y="110" width="20" height="20" fill="#111111"/>
  <rect x="150" y="150" width="20" height="20" fill="#111111"/>
  <rect x="190" y="150" width="20" height="20" fill="#111111"/>
  <rect x="230" y="150" width="20" height="20" fill="#111111"/>
  <rect x="270" y="150" width="20" height="20" fill="#111111"/>
  <rect x="150" y="190" width="20" height="20" fill="#111111"/>
  <rect x="230" y="190" width="20" height="20" fill="#111111"/>
  <rect x="270" y="190" width="20" height="20" fill="#111111"/>
  <rect x="150" y="230" width="20" height="20" fill="#111111"/>
  <rect x="190" y="230" width="20" height="20" fill="#111111"/>
  <rect x="230" y="230" width="20" height="20" fill="#111111"/>
  <rect x="270" y="230" width="20" height="20" fill="#111111"/>
  <rect x="150" y="270" width="20" height="20" fill="#111111"/>
  <rect x="190" y="270" width="20" height="20" fill="#111111"/>
  <rect x="230" y="270" width="20" height="20" fill="#111111"/>
  <rect x="270" y="270" width="20" height="20" fill="#111111"/>
  <rect x="150" y="310" width="20" height="20" fill="#111111"/>
  <rect x="230" y="310" width="20" height="20" fill="#111111"/>
  <rect x="270" y="310" width="20" height="20" fill="#111111"/>
  <rect x="150" y="350" width="20" height="20" fill="#111111"/>
  <rect x="190" y="350" width="20" height="20" fill="#111111"/>
  <rect x="230" y="350" width="20" height="20" fill="#111111"/>
  <rect x="270" y="350" width="20" height="20" fill="#111111"/>
  <text x="210" y="402" font-family="Arial, sans-serif" font-size="20" text-anchor="middle" fill="#111111">GCash QR Placeholder</text>
</svg>
